<?xml version="1.0" standalone="no"?>
<!DOCTYPE svg PUBLIC "-//W3C//DTD SVG 20010904//EN"
 "http://www.w3.org/TR/2001/REC-SVG-20010904/DTD/svg10.dtd">
<svg version="1.0" xmlns="http://www.w3.org/2000/svg"
 width="96.000000pt" height="96.000000pt" viewBox="0 0 96.000000 96.000000"
 preserveAspectRatio="xMidYMid meet">
<metadata>
Created by potrace 1.14, written by Peter Selinger 2001-2017
</metadata>
<g transform="translate(0.000000,96.000000) scale(0.100000,-0.100000)"
fill="#000000" stroke="none">
<path d="M449 893 c-8 -10 -37 -64 -64 -120 l-49 -102 -100 0 c-131 0 -170 -9
-174 -40 -3 -19 17 -43 94 -116 l97 -92 -41 -114 c-48 -129 -50 -151 -22 -179
39 -39 92 -24 196 56 82 62 109 67 156 26 84 -73 130 -102 163 -102 71 0 90
71 64 244 l-11 75 66 72 c64 70 91 128 70 149 -5 5 -67 11 -138 12 l-129 3
-51 102 c-71 140 -95 164 -127 126z m84 -86 c18 -34 39 -78 47 -97 26 -69 29
-70 172 -70 73 0 128 -4 128 -9 0 -29 -28 -71 -86 -131 l-65 -68 10 -39 c6
-21 14 -80 18 -131 5 -80 4 -95 -12 -112 -32 -36 -67 -25 -150 45 -97 82 -120
83 -207 16 -35 -26 -78 -56 -95 -65 -58 -29 -103 -16 -103 30 0 21 40 132 76
214 l16 35 -103 97 c-82 78 -101 100 -91 110 9 9 56 14 138 17 l126 3 54 112
c29 62 57 115 60 119 12 11 31 -11 67 -76z"/>
<path d="M380 557 c0 -8 9 -22 19 -31 15 -14 24 -15 40 -6 12 6 21 17 21 25 0
13 -3 13 -21 3 -17 -11 -22 -10 -33 5 -16 20 -26 22 -26 4z"/>
<path d="M546 562 c-3 -5 3 -17 14 -27 22 -20 70 -13 70 10 0 18 -12 19 -28 3
-9 -9 -16 -7 -31 6 -10 9 -22 13 -25 8z"/>
<path d="M550 402 c0 -7 -11 -18 -25 -24 -21 -9 -28 -8 -45 7 -26 24 -39 11
-15 -15 23 -25 56 -26 86 -1 19 16 22 22 12 32 -10 10 -13 10 -13 1z"/>
</g>
</svg>
